<svg xmlns="http://www.w3.org/2000/svg" width="341.48" height="460">
  <defs>
    <clipPath id="b">
      <path d="M0 0h341.48v460H0z"/>
    </clipPath>
    <style>
      .b{fill:#2f2e41}.c{fill:#3f3d56}.e{fill:#3acfa4}.m{fill:#ffb6b6}
    </style>
  </defs>
  <g id="a" style="clip-path:url(#b)">
    <path d="M219.26 460H41.746a39.3 39.3 0 0 1-39.254-39.254V205.7a1.657 1.657 0 0 1-.831.223A1.662 1.662 0 0 1 0 204.26v-25.74a1.662 1.662 0 0 1 1.66-1.66 1.654 1.654 0 0 1 .831.223v-7.918a1.658 1.658 0 0 1-.831.223 1.662 1.662 0 0 1-1.66-1.66v-25.74a1.663 1.663 0 0 1 1.66-1.661 1.654 1.654 0 0 1 .831.223v-23.7a1.659 1.659 0 0 1-.831.223A1.662 1.662 0 0 1 0 115.415V102.13a1.663 1.663 0 0 1 1.66-1.661 1.655 1.655 0 0 1 .831.223V39.254A39.3 39.3 0 0 1 41.746 0H219.26a39.3 39.3 0 0 1 39.254 39.254v381.491A39.3 39.3 0 0 1 219.26 460ZM41.749 3.733A35.563 35.563 0 0 0 6.227 39.254v381.485c0 2.523 37.585 10.722 59.989 15.385 31.957 6.65 62.374 12.282 66.5 12.688.268.028.535.054.8.08.283.028.574.056.859.086 2.025.2 4.12.4 6.227.6 10.84 1.049 21.976 2.065 34.043 3.106l1.725.149.092.008c1.416.123 2.753.239 4.086.348 5 .434 9.814.827 13.326 1.113l.387.031.183.015c1.841.149 3.579.29 5.242.418 6.5.521 11.418.893 14.4 1.113 3.252.242 5.143.38 5.165.382.57 0 1.039-.01 1.478-.033.265-.008.537-.024.755-.037H221.568a35.582 35.582 0 0 0 33.2-35.447V39.259a35.561 35.561 0 0 0-35.521-35.521h-21.198a6.462 6.462 0 0 0-6.4 6.021v.032c-.023.209-.048.426-.087.64a6.867 6.867 0 0 1-2.527 4.155 7.54 7.54 0 0 1-4.656 1.608H76.631a7.538 7.538 0 0 1-4.656-1.608 6.866 6.866 0 0 1-2.526-4.155c-.04-.219-.065-.434-.091-.672a6.463 6.463 0 0 0-6.4-6.021Z" class="b"/>
    <path d="M258.514 140.325a1.662 1.662 0 0 0-1.661 1.661v53.141a1.661 1.661 0 1 0 3.321 0v-53.141a1.662 1.662 0 0 0-1.66-1.661Z" class="c"/>
    <circle cx="12.074" cy="12.074" r="12.074" style="opacity:.4;fill:#3acfa4" transform="translate(157.881 237.65)"/>
    <path d="M59.24 384.056a4.029 4.029 0 0 1-4.025-4.025 4.029 4.029 0 0 1 4.025-4.024h140.864a4.029 4.029 0 0 1 4.025 4.024 4.029 4.029 0 0 1-4.025 4.025Zm-.232-47.291a4.029 4.029 0 0 1-4.025-4.024 4.029 4.029 0 0 1 4.025-4.025h52.318a4.029 4.029 0 0 1 4.025 4.025 4.029 4.029 0 0 1-4.025 4.024ZM41.564 200.421a19.156 19.156 0 0 1-19.138-19.134V83.728a19.156 19.156 0 0 1 19.138-19.141h177.047a19.156 19.156 0 0 1 19.138 19.138v97.559a19.156 19.156 0 0 1-19.138 19.137Zm-17.125-116.7v97.559a17.138 17.138 0 0 0 17.125 17.125h177.047a17.138 17.138 0 0 0 17.125-17.118V83.728a17.138 17.138 0 0 0-17.125-17.125H41.564a17.138 17.138 0 0 0-17.126 17.122Z" class="e"/>
    <path d="m73.216 296.494-8.281-3.923c3.4 4.74 6.323 12.143 7.89 18.033 2.653-5.487 6.929-12.2 11.162-16.211l-8.752 2.252c5.393-26.43 25.677-45.4 48.9-45.4v-2.015c-24.262 0-45.418 19.769-50.924 47.266Z" class="c"/>
    <circle cx="12.074" cy="12.074" r="12.074" style="fill:#fff" transform="translate(143.795 237.65)"/>
    <circle cx="12.074" cy="12.074" r="12.074" style="opacity:.7;fill:#3acfa4" transform="translate(143.795 237.65)"/>
    <circle cx="12.074" cy="12.074" r="12.074" style="fill:#ccc" transform="translate(78.504 101.816)"/>
    <circle cx="12.074" cy="12.074" r="12.074" style="fill:#ccc;opacity:.7" transform="translate(118.014 101.816)"/>
    <circle cx="12.074" cy="12.074" r="12.074" style="fill:#ccc;opacity:.4" transform="translate(157.522 101.816)"/>
    <path d="M90.578 139.045a12.074 12.074 0 1 1-12.074 12.074 12.074 12.074 0 0 1 12.074-12.074Z" class="b"/>
    <circle cx="12.074" cy="12.074" r="12.074" style="opacity:.7;fill:#3f3d56" transform="translate(118.014 139.045)"/>
    <circle cx="12.074" cy="12.074" r="12.074" style="opacity:.4;fill:#3f3d56" transform="translate(157.522 139.045)"/>
    <circle cx="12.074" cy="12.074" r="12.074" class="e" transform="translate(131.721 237.65)"/>
    <path d="M317.149 189.744h-27.617l-1.43-24.147c0-15.19 13.744-14.435 28.933-14.435h.113v38.582Z" class="b"/>
    <path d="M301.794 150.14a12.912 12.912 0 1 1-12.912 12.912 12.912 12.912 0 0 1 12.912-12.912ZM244.767 183.815a10 10 0 0 1-.05 4.72l4.568 16.048-7.7 1.95-3.8-16.489a10 10 0 0 1-2.006-4.273c-.849-3.9.476-7.5 2.959-8.044s5.184 2.185 6.033 6.087ZM301.88 443.179l-6.188.146-3.449-27.8 9.131-.216ZM279.248 442.532l-6.188.147-3.449-27.8 9.131-.216Z" class="m"/>
    <path d="M180.642 460a1.194 1.194 0 0 1-1.2-1.2 1.194 1.194 0 0 1 1.2-1.2h100.676a1.781 1.781 0 0 1-.256-.271h-2.627l-.34-6.949a11.092 11.092 0 0 0-6.136 6.949h-12.283a1.787 1.787 0 0 1-1.657-1.893 1.918 1.918 0 0 1 1-1.737l6.815-3.367 4.646-10.776.071-10.857 9.574-1.126 1.384 6.917s-2.851-.426.669 2.63 1.825 9.034 1.825 9.034l.467 6.8 4-1.974 4.646-10.776.07-10.857 9.574-1.126 1.385 6.916s-2.851-.425.669 2.631 1.825 9.034 1.825 9.034l.742 10.8h32.9a1.194 1.194 0 0 1 1.2 1.2 1.2 1.2 0 0 1-1.2 1.2Zm120.41-2.4-.322-6.574a11.083 11.083 0 0 0-6.022 6.574Zm-12.146-35.543.833-96.293-10.356 24.165 1.579 72.128h-13.563l-12.184-69.08 12.59-86.912 11.137-15.632 4.67-4.264s14.657-6.9 26.638 10.05q.315.443.617.91t.6.93a63.925 63.925 0 0 1 9.486 41.938l-16.155 122.067Z" class="b"/>
    <path d="M315.687 288.006a10 10 0 0 1 1.228-4.557l-.411-16.681 7.943.037-.439 16.917a9.994 9.994 0 0 1 .874 4.638c-.154 3.99-2.337 7.146-4.876 7.048s-4.473-3.412-4.32-7.4Z" class="m"/>
    <path d="m316.276 279.377-1.1-38.324-4.927 15.166-4.832 1.4-38.7 11.168 9.056-21.129-2.477-15.087a18.726 18.726 0 0 1-.41-13.433l-15.185 13.638a6.407 6.407 0 0 1-5.628 1.5 6.405 6.405 0 0 1-4.846-4.623l-8.63-32.556 7.919-3.033 10.387 19.183 19.568-27.112 14.156-2.15 1.747-3 17.869 1.219 2.843 5.685 4.392 2.842c3.764.271 9.053 1.417 9.433 5.693.335 3.774 2.621 38.11 2.246 59.129-.288 16.209-4.775 24.1-4.775 24.1Z" class="e"/>
    <path d="m286.913 162.306.482-.007c.618-2.018.059-.188 1.454.287l2.032-1.342 6.572-.046a10.135 10.135 0 0 1 4.738 1.188c.648.336 1.242.517 1.621.133l2.253-2.28s-3.47 31.652-4.341 33.934l2.639-.334s.81-5.743 1.241-5.793c.114-.013.259.309.414.8.751 2.408 1.881 7.059 3.214 4.919.725-1.164 1.548-1.212 2.307.221 1.751 3.3 6.931-.867 9.121-3.9.013-.017.024-.026.035-.024.053.009.109.122.164.3a3.4 3.4 0 0 0 3.5 2.437c.4-.034 4.991 3.984.707-.033-2.614-2.451.424-6.5-3.018-13.08-2.021-3.861 2.069-9.392 2.027-13.93-.054-5.906-1.339-11.3-4.659-14.415-3.467-3.254-6.3-3.1-11.781-3.778-7.834-5.864-16.691-.974-20.648 8.493-.886 2.12.245 3.632-.079 6.246Z" class="b"/>
  </g>
</svg>
