<svg xmlns="http://www.w3.org/2000/svg" width="199.995" height="199.995" viewBox="0 0 199.995 199.995"><g transform="translate(-1356 -95)"><path d="M-1892.018-114h-120a39.748,39.748,0,0,1-15.569-3.143,39.863,39.863,0,0,1-12.714-8.572,39.864,39.864,0,0,1-8.572-12.714A39.75,39.75,0,0,1-2052.014-154V-274a39.752,39.752,0,0,1,3.143-15.57,39.866,39.866,0,0,1,8.572-12.714,39.864,39.864,0,0,1,12.714-8.572A39.748,39.748,0,0,1-2012.016-314h120a39.748,39.748,0,0,1,15.569,3.143,39.863,39.863,0,0,1,12.714,8.572,39.866,39.866,0,0,1,8.572,12.714,39.75,39.75,0,0,1,3.143,15.57v120a39.747,39.747,0,0,1-3.143,15.569,39.864,39.864,0,0,1-8.572,12.714,39.863,39.863,0,0,1-12.714,8.572A39.747,39.747,0,0,1-1892.018-114Zm-114.7-170a4.709,4.709,0,0,0-2.735.913l-10.975,7.826a6.494,6.494,0,0,0-2.571,4.88,7,7,0,0,0,1.8,5.337l5.116,3.8a6.652,6.652,0,0,1,2.507,5.379,6.648,6.648,0,0,1-2.507,5.378l-5.116,3.8a6.875,6.875,0,0,0-1.82,4.777,6.869,6.869,0,0,0,1.82,4.775l5.116,3.8a6.651,6.651,0,0,1,2.507,5.379,6.648,6.648,0,0,1-2.507,5.378l-5.111,3.8a6.871,6.871,0,0,0-1.824,4.781,6.868,6.868,0,0,0,1.823,4.779l5.112,3.8a6.652,6.652,0,0,1,2.507,5.379,6.648,6.648,0,0,1-2.507,5.378l-5.116,3.8a6.875,6.875,0,0,0-1.82,4.777,6.874,6.874,0,0,0,1.82,4.776l5.116,3.8a6.652,6.652,0,0,1,2.507,5.379,6.648,6.648,0,0,1-2.507,5.378l-5.112,3.8a7,7,0,0,0-1.8,5.337,6.487,6.487,0,0,0,2.571,4.882l10.975,7.826a4.707,4.707,0,0,0,2.736.914h105.7a19.872,19.872,0,0,0,14.143-5.857A19.872,19.872,0,0,0-1881.014-164V-264a19.868,19.868,0,0,0-5.857-14.142A19.873,19.873,0,0,0-1901.014-284l-103.955,0Zm78.989,122.489a50.249,50.249,0,0,1-9.193-.8,25.712,25.712,0,0,1-7.448-2.5,13.707,13.707,0,0,1-4.951-4.338,11.028,11.028,0,0,1-1.791-6.317,5.5,5.5,0,0,1,.754-2.923,6.381,6.381,0,0,1,1.886-1.98,8.508,8.508,0,0,1,2.593-1.131,11.543,11.543,0,0,1,2.876-.377,8.594,8.594,0,0,1,4.9,1.131,7.86,7.86,0,0,1,2.357,2.452c.5.876,1.721,1.7,3.631,2.452a24.65,24.65,0,0,0,8.532,1.131,17.916,17.916,0,0,0,7.733-1.319c1.752-.876,2.64-1.923,2.64-3.112a3.6,3.6,0,0,0-.661-2.263,4.113,4.113,0,0,0-1.649-1.273,7.956,7.956,0,0,0-2.216-.566,20.668,20.668,0,0,0-2.357-.141,24.9,24.9,0,0,0-6.083.8,33.852,33.852,0,0,1-5.515.99,26.52,26.52,0,0,1-2.862.159,22.154,22.154,0,0,1-3.691-.3,16.97,16.97,0,0,1-5.374-1.791,10.027,10.027,0,0,1-3.631-3.3,8.574,8.574,0,0,1-1.319-4.762,5.008,5.008,0,0,1,.99-3.158,17.653,17.653,0,0,1,2.026-2.216,20.19,20.19,0,0,0,1.651-1.651.864.864,0,0,0-.141-1.367c-.573-.509-1.223-1.032-1.932-1.555a9.868,9.868,0,0,1-2.028-2.075,10.791,10.791,0,0,1-1.557-3.347,19.588,19.588,0,0,1-.611-5.375,22.176,22.176,0,0,1,1.932-9.664,17.322,17.322,0,0,1,5.422-6.553,22.858,22.858,0,0,1,8.249-3.677,45.289,45.289,0,0,1,10.419-1.131,56.16,56.16,0,0,1,5.752.283,38.664,38.664,0,0,0,3.942.212c.42,0,.839-.008,1.244-.024a11.833,11.833,0,0,0,4.29-1.084,39.251,39.251,0,0,1,4.29-1.745,5.83,5.83,0,0,1,1.98-.377,4.488,4.488,0,0,1,3.866,2.028,7.406,7.406,0,0,1,1.414,4.29,5.578,5.578,0,0,1-.707,2.829,3.76,3.76,0,0,1-2.309,1.7,4.43,4.43,0,0,1-.991.141c-.469.032-.96.08-1.461.142a8.044,8.044,0,0,0-1.368.283c-.407.126-.613.285-.613.472a.546.546,0,0,0,.189.377,7.131,7.131,0,0,1,2.263,3.724,19.472,19.472,0,0,1,.661,5.139,15.944,15.944,0,0,1-2.075,8.344,18.222,18.222,0,0,1-5.186,5.611,21.771,21.771,0,0,1-6.741,3.159,26.155,26.155,0,0,1-6.835.99h-6.978c-.248,0-.581.016-.99.047a6.445,6.445,0,0,0-1.273.236,2.59,2.59,0,0,0-1.131.66,1.666,1.666,0,0,0-.472,1.226c0,.5.38.913,1.13,1.226a3.642,3.642,0,0,0,1.391.236,9.155,9.155,0,0,0,1.909-.236c1.44-.312,3.312-.63,5.564-.943a58.621,58.621,0,0,1,7.919-.471,39.117,39.117,0,0,1,8.015.706,13.28,13.28,0,0,1,5.422,2.357,9.563,9.563,0,0,1,3.111,4.385,20.213,20.213,0,0,1,.99,6.789,16.586,16.586,0,0,1-2.309,8.958,17.486,17.486,0,0,1-6.318,5.94,30.138,30.138,0,0,1-9.428,3.253A65.64,65.64,0,0,1-1927.725-161.511Zm1.885-58.836a9.495,9.495,0,0,0-3.536.66,9.744,9.744,0,0,0-2.829,1.7,8.23,8.23,0,0,0-1.839,2.263,5.154,5.154,0,0,0-.66,2.451,3.527,3.527,0,0,0,.754,2.264,6.542,6.542,0,0,0,1.933,1.6,8.788,8.788,0,0,0,2.687.942,16.372,16.372,0,0,0,3.017.284,11.029,11.029,0,0,0,6.129-1.6,5.045,5.045,0,0,0,2.452-4.432,4.851,4.851,0,0,0-.8-2.782,6.837,6.837,0,0,0-1.98-1.932,8.28,8.28,0,0,0-2.593-1.085A12.074,12.074,0,0,0-1925.84-220.347Zm-34.159,33.6a6.852,6.852,0,0,1-3.857-1.334,23.271,23.271,0,0,1-3.859-3.382,49.471,49.471,0,0,1-3.621-4.383c-1.128-1.534-2.186-3.008-3.145-4.383s-1.769-2.5-2.429-3.382-1.128-1.334-1.381-1.334a.55.55,0,0,0-.573.524,4.913,4.913,0,0,0-.094.81v5.193a22.361,22.361,0,0,1-.668,5.526,9.34,9.34,0,0,1-2.429,4.383,7.073,7.073,0,0,1-5.193,1.762,6.714,6.714,0,0,1-5.67-2.572,15.869,15.869,0,0,1-2.762-6.146,37.9,37.9,0,0,1-.905-7.431c-.064-2.536-.1-4.7-.1-6.431,0-3.428-.032-6.859-.094-10.2-.064-3.413-.1-6.843-.1-10.2,0-3.2.048-6.341.144-9.338a40.6,40.6,0,0,1,.952-7.908,12.512,12.512,0,0,1,2.621-5.478,6.413,6.413,0,0,1,5.049-2.049,10.881,10.881,0,0,1,5.289,1.1,7.934,7.934,0,0,1,3,2.858,10.891,10.891,0,0,1,1.381,3.907,27.641,27.641,0,0,1,.333,4.24c0,.819-.048,1.893-.142,3.191-.1,1.317-.209,2.7-.334,4.1-.127,1.438-.24,2.817-.334,4.1-.094,1.3-.142,2.373-.142,3.191v.81c0,.411.128.619.381.619.317,0,.814-.4,1.477-1.191s1.493-1.778,2.478-2.954,2.067-2.449,3.239-3.812a52.115,52.115,0,0,1,3.621-3.811,25.315,25.315,0,0,1,3.716-2.954,6.563,6.563,0,0,1,3.478-1.192,7.611,7.611,0,0,1,6.432,2.812,11.417,11.417,0,0,1,2.144,7.1,8.073,8.073,0,0,1-1.667,4.907,22.237,22.237,0,0,1-4,4.1,53.987,53.987,0,0,1-4.908,3.478,51.41,51.41,0,0,0-4.382,3.049c-.368.307-.757.619-1.191.953a1.29,1.29,0,0,0-.619.953,1.061,1.061,0,0,0,.572.857c.394.263.81.552,1.238.858,1.294,1.049,2.849,2.251,4.621,3.573,1.746,1.3,3.429,2.666,5,4.05a37.1,37.1,0,0,1,4.145,4.24,8.614,8.614,0,0,1,2.047,4.049,7.9,7.9,0,0,1-.427,4.335,10.2,10.2,0,0,1-2.192,3.334,10.464,10.464,0,0,1-3.049,2.144A7.526,7.526,0,0,1-1960-186.745Z" transform="translate(3408.015 409)"/></g></svg>