<svg xmlns="http://www.w3.org/2000/svg" xmlns:xlink="http://www.w3.org/1999/xlink" width="199.995" height="199.996" viewBox="0 0 199.995 199.996"><defs><style>.a{fill:url(#a);}.b{fill:#fff;}.c{fill:#3ccdae;}</style><linearGradient id="a" x1="0.5" x2="0.5" y2="1" gradientUnits="objectBoundingBox"><stop offset="0" stop-color="#38d19b"/><stop offset="1" stop-color="#40c9c0"/></linearGradient></defs><g transform="translate(-1356 -95)"><path class="a" d="M40,0H160a40,40,0,0,1,40,40V160a40,40,0,0,1-40,40H40A40,40,0,0,1,0,160V40A40,40,0,0,1,40,0Z" transform="translate(1356 95)"/><g transform="translate(1.119 -11.102)"><path class="b" d="M0,0H103.955a20,20,0,0,1,20,20V120a20,20,0,0,1-20,20H0a0,0,0,0,1,0,0V0A0,0,0,0,1,0,0Z" transform="translate(1401.926 136.102)"/><path class="b" d="M-2024.979,140a4.708,4.708,0,0,1-2.736-.913l-10.975-7.827a6.486,6.486,0,0,1-2.571-4.882,6.991,6.991,0,0,1,1.8-5.336l5.112-3.8a6.652,6.652,0,0,0,2.508-5.379,6.652,6.652,0,0,0-2.508-5.379l-5.115-3.8a6.872,6.872,0,0,1-1.82-4.776,6.873,6.873,0,0,1,1.82-4.777l5.115-3.8a6.652,6.652,0,0,0,2.508-5.379,6.652,6.652,0,0,0-2.508-5.379l-5.112-3.8a6.869,6.869,0,0,1-1.823-4.78,6.87,6.87,0,0,1,1.824-4.78l5.111-3.8a6.652,6.652,0,0,0,2.508-5.379,6.652,6.652,0,0,0-2.508-5.379l-5.115-3.8a6.872,6.872,0,0,1-1.82-4.776,6.873,6.873,0,0,1,1.82-4.777l5.115-3.8a6.652,6.652,0,0,0,2.508-5.379,6.652,6.652,0,0,0-2.508-5.379l-5.115-3.8a6.992,6.992,0,0,1-1.8-5.337,6.486,6.486,0,0,1,2.571-4.88l10.975-7.827A4.712,4.712,0,0,1-2024.98,0c21.365,0,2.72.651,3.718,1.785a6.88,6.88,0,0,1,1.63,4.568V133.647a6.88,6.88,0,0,1-1.63,4.568C-2022.26,139.349-2003.614,140-2024.979,140Z" transform="translate(3425.162 136.101)"/></g><g transform="translate(-10.867 6.002)"><path class="c" d="M39.274-.511a6.827,6.827,0,0,1-3.859-1.334,23.177,23.177,0,0,1-3.859-3.382,49.159,49.159,0,0,1-3.621-4.383q-1.715-2.334-3.144-4.383t-2.43-3.382q-1-1.334-1.382-1.334a.547.547,0,0,0-.572.524,4.872,4.872,0,0,0-.1.81v5.193a22.326,22.326,0,0,1-.667,5.526,9.306,9.306,0,0,1-2.43,4.383A7.041,7.041,0,0,1,12.023-.511,6.684,6.684,0,0,1,6.354-3.084,15.788,15.788,0,0,1,3.591-9.229a37.76,37.76,0,0,1-.905-7.432q-.1-3.859-.1-6.431,0-5.145-.1-10.2t-.1-10.2q0-4.859.143-9.338A40.236,40.236,0,0,1,3.5-60.729a12.439,12.439,0,0,1,2.62-5.479,6.387,6.387,0,0,1,5.05-2.049,10.831,10.831,0,0,1,5.288,1.1,7.892,7.892,0,0,1,3,2.858A10.818,10.818,0,0,1,20.837-60.4a27.553,27.553,0,0,1,.333,4.24q0,1.239-.143,3.192t-.333,4.1q-.191,2.144-.333,4.1t-.143,3.192q0,.191,0,.81t.381.619q.476,0,1.477-1.191t2.477-2.954q1.477-1.763,3.24-3.811a51.978,51.978,0,0,1,3.621-3.811,25.2,25.2,0,0,1,3.716-2.954,6.526,6.526,0,0,1,3.478-1.191,7.579,7.579,0,0,1,6.431,2.811,11.369,11.369,0,0,1,2.144,7.1,8.036,8.036,0,0,1-1.667,4.907,22.147,22.147,0,0,1-4,4.1,54.5,54.5,0,0,1-4.907,3.478,50.9,50.9,0,0,0-4.383,3.049q-.572.476-1.191.953a1.284,1.284,0,0,0-.619.953,1.059,1.059,0,0,0,.572.858q.572.381,1.239.858,2,1.62,4.621,3.573t5,4.049a36.933,36.933,0,0,1,4.145,4.24,8.582,8.582,0,0,1,2.049,4.049,7.875,7.875,0,0,1-.429,4.335,10.151,10.151,0,0,1-2.191,3.335A10.433,10.433,0,0,1,42.37-1.274,7.5,7.5,0,0,1,39.274-.511Z" transform="translate(1419.61 216.764)"/><path class="c" d="M20.848-16.561A23.835,23.835,0,0,1,14.3-16.7a16.908,16.908,0,0,1-5.374-1.791,9.979,9.979,0,0,1-3.63-3.3,8.529,8.529,0,0,1-1.32-4.762,4.989,4.989,0,0,1,.99-3.159A17.521,17.521,0,0,1,6.988-31.93a20.231,20.231,0,0,0,1.65-1.65A.862.862,0,0,0,8.5-34.948Q7.648-35.7,6.564-36.5a9.8,9.8,0,0,1-2.027-2.074,10.706,10.706,0,0,1-1.556-3.347A19.439,19.439,0,0,1,2.368-47.3,22.082,22.082,0,0,1,4.3-56.964a17.243,17.243,0,0,1,5.422-6.553,22.741,22.741,0,0,1,8.25-3.677,45.049,45.049,0,0,1,10.419-1.131,55.945,55.945,0,0,1,5.752.283,36.738,36.738,0,0,0,5.186.189,11.792,11.792,0,0,0,4.29-1.084,38.963,38.963,0,0,1,4.29-1.744,5.792,5.792,0,0,1,1.98-.377,4.469,4.469,0,0,1,3.866,2.027,7.373,7.373,0,0,1,1.414,4.29,5.558,5.558,0,0,1-.707,2.829,3.744,3.744,0,0,1-2.31,1.7,4.5,4.5,0,0,1-.99.141q-.707.047-1.461.141a8.057,8.057,0,0,0-1.367.283q-.613.189-.613.471a.543.543,0,0,0,.189.377,7.092,7.092,0,0,1,2.263,3.724,19.341,19.341,0,0,1,.66,5.139,15.879,15.879,0,0,1-2.074,8.345,18.151,18.151,0,0,1-5.186,5.61,21.689,21.689,0,0,1-6.742,3.159,26.03,26.03,0,0,1-6.836.99H23.017q-.377,0-.99.047a6.433,6.433,0,0,0-1.273.236,2.57,2.57,0,0,0-1.131.66,1.658,1.658,0,0,0-.471,1.226q0,.754,1.131,1.226a5.756,5.756,0,0,0,3.3,0q2.169-.471,5.563-.943a58.309,58.309,0,0,1,7.92-.471,38.886,38.886,0,0,1,8.015.707A13.215,13.215,0,0,1,50.5-26.792a9.512,9.512,0,0,1,3.112,4.384,20.116,20.116,0,0,1,.99,6.789,16.511,16.511,0,0,1-2.31,8.957,17.415,17.415,0,0,1-6.317,5.94,30.028,30.028,0,0,1-9.429,3.253,65.408,65.408,0,0,1-11.739.99,50.058,50.058,0,0,1-9.193-.8A25.615,25.615,0,0,1,8.167.222a13.64,13.64,0,0,1-4.95-4.337,10.98,10.98,0,0,1-1.791-6.317,5.468,5.468,0,0,1,.754-2.923,6.322,6.322,0,0,1,1.886-1.98,8.432,8.432,0,0,1,2.593-1.131,11.478,11.478,0,0,1,2.876-.377,8.558,8.558,0,0,1,4.9,1.131,7.849,7.849,0,0,1,2.357,2.451q.754,1.32,3.63,2.451a24.532,24.532,0,0,0,8.533,1.131A17.82,17.82,0,0,0,36.689-11q2.64-1.32,2.64-3.112a3.588,3.588,0,0,0-.66-2.263,4.107,4.107,0,0,0-1.65-1.273,7.9,7.9,0,0,0-2.216-.566,20.58,20.58,0,0,0-2.357-.141,24.71,24.71,0,0,0-6.082.8A33.854,33.854,0,0,1,20.848-16.561ZM34.8-49.185a4.826,4.826,0,0,0-.8-2.782,6.822,6.822,0,0,0-1.98-1.933,8.247,8.247,0,0,0-2.593-1.084,12.022,12.022,0,0,0-2.734-.33,9.431,9.431,0,0,0-3.536.66,9.675,9.675,0,0,0-2.829,1.7,8.21,8.21,0,0,0-1.839,2.263,5.131,5.131,0,0,0-.66,2.451,3.51,3.51,0,0,0,.754,2.263,6.509,6.509,0,0,0,1.933,1.6,8.767,8.767,0,0,0,2.687.943,16.339,16.339,0,0,0,3.017.283,10.976,10.976,0,0,0,6.129-1.6A5.025,5.025,0,0,0,34.8-49.185Z" transform="translate(1466.347 237.964)"/></g></g></svg>