<svg xmlns="http://www.w3.org/2000/svg" width="511.07" height="460">
  <defs>
    <clipPath id="b">
      <path d="M0 0h511.07v460H0z"/>
    </clipPath>
    <style>
      .c{fill:#ffb6b6}
    </style>
  </defs>
  <g id="a" clip-path="url(#b)">
    <g transform="translate(0 3.229)">
      <path fill="#e6e6e6" d="M65.701 341.07.149 106.963a3.933 3.933 0 0 1 2.719-4.833l241.658-67.667a3.941 3.941 0 0 1 1.057-.145 3.938 3.938 0 0 1 3.776 2.864l65.552 234.107a3.932 3.932 0 0 1-2.719 4.833L70.534 343.789a3.942 3.942 0 0 1-1.057.146 3.94 3.94 0 0 1-3.776-2.865Zm-54.5-231.071 62.367 222.735 230.286-64.481-62.368-222.735Zm62.2 152.541 185.135-51.84.461 1.645-185.135 51.84Zm-7.887-26.836c-.758-2.706-.124-5.259 1.412-5.689l105.029-29.409c1.537-.431 3.4 1.422 4.162 4.128s.124 5.259-1.412 5.689L69.676 239.832a1.707 1.707 0 0 1-.456.062c-1.436 0-3.019-1.746-3.709-4.19Zm-8.458-30.208c-.758-2.705-.124-5.258 1.412-5.688L163.497 170.4c1.536-.43 3.4 1.422 4.161 4.128s.125 5.259-1.412 5.689L61.217 209.625a1.7 1.7 0 0 1-.455.062c-1.436 0-3.024-1.747-3.709-4.191Zm164.273-14.592a5.1 5.1 0 0 1 3.533-6.283l19.635-5.5a5.1 5.1 0 0 1 6.283 3.534 5.1 5.1 0 0 1-3.534 6.283l-19.634 5.5a5.107 5.107 0 0 1-1.378.19 5.1 5.1 0 0 1-4.907-3.724ZM48.695 175.638c-.758-2.707-.124-5.259 1.412-5.689l105.029-29.409c1.536-.43 3.4 1.422 4.161 4.128s.125 5.259-1.411 5.688l-105.03 29.41a1.7 1.7 0 0 1-.455.062c-1.436.001-3.024-1.747-3.709-4.189Zm164.34-14.355a5.1 5.1 0 0 1 3.533-6.283l19.635-5.5a5.1 5.1 0 0 1 6.283 3.534 5.1 5.1 0 0 1-3.534 6.283l-19.634 5.5a5.094 5.094 0 0 1-1.376.19 5.1 5.1 0 0 1-4.91-3.723Zm-172.8-15.853c-.758-2.706-.125-5.259 1.411-5.689l105.03-29.408c1.536-.431 3.4 1.421 4.161 4.128s.124 5.259-1.412 5.689L44.396 149.558a1.7 1.7 0 0 1-.455.062c-1.434.001-3.021-1.747-3.706-4.189Zm164.5-13.77a5.1 5.1 0 0 1 3.534-6.283l19.634-5.5a5.1 5.1 0 0 1 6.283 3.534 5.1 5.1 0 0 1-3.534 6.284l-19.634 5.5a5.107 5.107 0 0 1-1.378.19 5.1 5.1 0 0 1-4.902-3.724Zm-8.294-29.622a5.1 5.1 0 0 1 3.533-6.283l19.635-5.5a5.1 5.1 0 0 1 6.283 3.534 5.1 5.1 0 0 1-3.534 6.283l-19.634 5.5a5.1 5.1 0 0 1-1.377.19 5.1 5.1 0 0 1-4.904-3.723Z"/>
      <path d="m444.5 431.956-14.848 3.59-20.912-55.563 21.915-5.3ZM378.768 442.071h-15.276l-7.267-58.921h22.545Z" class="c"/>
      <circle cx="30.603" cy="30.603" r="30.603" class="c" transform="rotate(-28.663 216.7971 -635.3579)"/>
      <path d="M326.004 280.643a12.53 12.53 0 0 0 .727-19.2l17.379-40.994-22.756 4.188-13.015 38.287a12.6 12.6 0 0 0 17.665 17.719Z" class="c"/>
      <path fill="#2f2e41" d="M404.03 456.752H290.514v-1.8h43.135a18.975 18.975 0 0 1 18.931-17.673h29.889v17.673h21.182a19 19 0 0 1 14.269-21.5l29.05-7.023 4.56 18.861-39.972 9.663h99.512l-.327 1.8H404.114l-.078.02Zm-47.818-37.684-14.831-176.766 61.4-11.316.243-.045 17.971 11.553-6.255 65.055 28.8 101.425-24.867 6.544-28.845-94.067-6.6-28.6-3.383 37.17 2.512 91.665Zm31.889-350.839a13.364 13.364 0 0 1 .059-6.568c.618-3.286 1.4-6.645.816-9.938s-2.95-6.547-6.269-6.95-6.716 3.39-5.12 6.329l-.818-1.268c-3.668.477-6.436-3.277-7.719-6.746s-2.262-7.509-5.451-9.384c-2.57-1.51-5.563-1.058-8.609-.607a20.367 20.367 0 0 1-6.308.282c-5.628-.954-9.286-6.918-9.573-12.619s1.982-11.183 4.208-16.439l.777 6.532a12.95 12.95 0 0 1 5.661-11.322l-1 9.584a10.173 10.173 0 0 1 11.7-8.418l-.157 5.711c6.5-.773 13.056-1.547 19.575-.958s13.084 2.652 18.025 6.945c7.391 6.422 10.09 17 9.184 26.746s-4.93 18.907-9.125 27.755c-1.055 2.226-2.515 4.738-4.962 5.021a3.579 3.579 0 0 1-.41.024c-2.035 0-3.843-1.738-4.484-3.712Z"/>
      <path fill="#3acfa4" d="m309.217 248.756 5.6-11.815a2.31 2.31 0 0 1-.826-.857c-5.229-9.062 26.354-84.313 28.459-89.305-.32-2.714-3.636-31.482-1.212-41.178 2.811-11.242 8.536-16.573 19.1-17.738l.2-1.506.028-.21.149-.149c.312-.313 7.746-7.659 15.393-7.659 1.105 0 2.156-.028 3.164-.053 5.851-.152 10.473-.273 15.966 5.22 5.6 5.6 23.857 26.031 23.857 54.019 0 27.09 2.467 111.277 2.492 112.124l.034 1.189-1-.649c-.247-.158-24.807-15.8-45.4-1.259-6.437 4.543-12.219 6.136-17.164 6.136-11.509 0-18.475-8.627-18.574-8.753l-.162-.205 1.076-8.1-9.464 19.305Zm-80.935-4.784a6.494 6.494 0 0 1 4.5-8.006l25.018-7.006a6.5 6.5 0 0 1 8.006 4.5 6.5 6.5 0 0 1-4.5 8.007l-25.018 7.006a6.51 6.51 0 0 1-1.755.242 6.5 6.5 0 0 1-6.252-4.748Z"/>
    </g>
  </g>
</svg>
