<svg xmlns="http://www.w3.org/2000/svg" width="632.2" height="460">
  <defs>
    <clipPath id="b">
      <path d="M0 0h632.2v460H0z"/>
    </clipPath>
    <style>
      .b{fill:#3acfa4}.c{fill:#2f2e43}.e{fill:#ffb6b6}
    </style>
  </defs>
  <g id="a" clip-path="url(#b)">
    <path d="M623.545 360.799h-512.82c-4.78 0-8.654-3.447-8.659-7.7V7.695c.006-4.248 3.88-7.69 8.659-7.7h512.82c4.781 0 8.654 3.447 8.659 7.7v345.409c-.006 4.248-3.88 7.689-8.659 7.695ZM110.725 1.708c-3.717 0-6.731 2.681-6.735 5.985v345.409c0 3.3 3.018 5.981 6.735 5.985h512.82c3.717 0 6.731-2.681 6.735-5.985V7.693c0-3.3-3.018-5.981-6.735-5.985Z" class="b"/>
    <path d="M410.116 172.221a8.669 8.669 0 0 1-8.66-8.659v-29.827a8.669 8.669 0 0 1 8.66-8.659h163.563a8.669 8.669 0 0 1 8.659 8.659v29.827a8.669 8.669 0 0 1-8.659 8.659Zm-6.736-38.486v29.826a6.743 6.743 0 0 0 6.736 6.736h163.563a6.743 6.743 0 0 0 6.735-6.736v-29.826a6.742 6.742 0 0 0-6.735-6.735H410.116a6.743 6.743 0 0 0-6.736 6.735Zm-242.459 38.486a8.669 8.669 0 0 1-8.659-8.659v-29.827a8.669 8.669 0 0 1 8.659-8.659h163.564a8.669 8.669 0 0 1 8.659 8.659v29.827a8.669 8.669 0 0 1-8.659 8.659Zm-6.735-38.486v29.826a6.744 6.744 0 0 0 6.735 6.736h163.564a6.743 6.743 0 0 0 6.735-6.736v-29.826a6.742 6.742 0 0 0-6.735-6.735H160.921a6.743 6.743 0 0 0-6.735 6.735Zm6.735-53.611a8.669 8.669 0 0 1-8.659-8.659V41.638a8.669 8.669 0 0 1 8.659-8.659h412.757a8.669 8.669 0 0 1 8.659 8.659v29.827a8.669 8.669 0 0 1-8.659 8.659Zm-6.735-38.486v29.827a6.743 6.743 0 0 0 6.735 6.735h412.757a6.743 6.743 0 0 0 6.735-6.735V41.638a6.743 6.743 0 0 0-6.735-6.735H160.921a6.744 6.744 0 0 0-6.735 6.735Z" class="c"/>
    <path fill="#e6e6e6" d="M311.382 327.94a8.188 8.188 0 0 1-8.177-8.179v-10.583a8.188 8.188 0 0 1 8.177-8.177h109.684a8.188 8.188 0 0 1 8.178 8.177v10.584a8.188 8.188 0 0 1-8.178 8.178Zm109.8-63.139a7.7 7.7 0 0 1 7.7-7.7 7.7 7.7 0 0 1 7.7 7.7 7.7 7.7 0 0 1-7.7 7.7 7.7 7.7 0 0 1-7.703-7.7Zm1.924 0a5.773 5.773 0 0 0 5.773 5.773 5.772 5.772 0 0 0 5.773-5.773 5.772 5.772 0 0 0-5.773-5.773 5.774 5.774 0 0 0-5.772 5.773Zm-243.9 7.482a7.7 7.7 0 0 1-7.694-7.7 7.7 7.7 0 0 1 7.7-7.7 7.7 7.7 0 0 1 7.7 7.7 7.7 7.7 0 0 1-7.7 7.7Zm-5.773-7.7a5.773 5.773 0 0 0 5.773 5.772 5.772 5.772 0 0 0 5.773-5.772 5.773 5.773 0 0 0-5.773-5.773 5.773 5.773 0 0 0-5.777 5.776Zm292.009 6.385a6.254 6.254 0 0 1-6.254-6.254 6.254 6.254 0 0 1 6.254-6.254h89.475a6.254 6.254 0 0 1 6.254 6.254 6.254 6.254 0 0 1-6.254 6.254Zm-249.394 0a6.254 6.254 0 0 1-6.254-6.254 6.254 6.254 0 0 1 6.254-6.254h89.479a6.254 6.254 0 0 1 6.254 6.254 6.254 6.254 0 0 1-6.254 6.254Zm-36.841-23.7a7.7 7.7 0 0 1-7.694-7.7 7.7 7.7 0 0 1 7.7-7.7 7.7 7.7 0 0 1 7.7 7.7 7.7 7.7 0 0 1-7.7 7.7Zm-5.774-7.7a5.773 5.773 0 0 0 5.773 5.773 5.773 5.773 0 0 0 5.773-5.773 5.773 5.773 0 0 0-5.773-5.773 5.773 5.773 0 0 0-5.777 5.777Zm285.755 0a6.254 6.254 0 0 1 6.254-6.254h89.475a6.254 6.254 0 0 1 6.254 6.254 6.254 6.254 0 0 1-6.254 6.254h-89.479a6.255 6.255 0 0 1-6.254-6.251Zm-249.394 0a6.254 6.254 0 0 1 6.254-6.254h89.479a6.254 6.254 0 0 1 6.254 6.254 6.254 6.254 0 0 1-6.254 6.254h-89.483a6.255 6.255 0 0 1-6.254-6.251Zm211.388-25.016a7.7 7.7 0 0 1 7.7-7.7 7.7 7.7 0 0 1 7.7 7.7 7.7 7.7 0 0 1-7.7 7.7 7.7 7.7 0 0 1-7.703-7.698Zm1.924 0a5.773 5.773 0 0 0 5.773 5.773 5.772 5.772 0 0 0 5.773-5.773 5.772 5.772 0 0 0-5.773-5.772 5.773 5.773 0 0 0-5.772 5.774Zm42.335 6.255a6.254 6.254 0 0 1-6.254-6.254 6.254 6.254 0 0 1 6.254-6.254h89.476a6.254 6.254 0 0 1 6.254 6.254 6.254 6.254 0 0 1-6.254 6.254Zm-249.394 0a6.254 6.254 0 0 1-6.253-6.254 6.254 6.254 0 0 1 6.253-6.254h89.479a6.254 6.254 0 0 1 6.254 6.254 6.254 6.254 0 0 1-6.254 6.254Zm212.473-65.906a6.254 6.254 0 0 1-6.254-6.254 6.254 6.254 0 0 1 6.251-6.252h106.8a6.254 6.254 0 0 1 6.254 6.254 6.255 6.255 0 0 1-6.254 6.254Zm-249.194 0a6.254 6.254 0 0 1-6.254-6.254 6.254 6.254 0 0 1 6.252-6.252h106.8a6.254 6.254 0 0 1 6.253 6.254 6.254 6.254 0 0 1-6.253 6.254Z"/>
    <path d="M164.717 273.031a12.48 12.48 0 0 0-5.21-3.056l-14.332-15.63-7.561 7.249 15.367 15.081a12.253 12.253 0 0 0 3.264 5.039c3.678 3.515 8.554 4.42 10.893 2.019s1.264-7.187-2.4-10.7h-.014Z" class="e"/>
    <path d="m149.807 307.475-6.074-8.668a8.188 8.188 0 0 1 2-11.391l89.831-62.959a8.189 8.189 0 0 1 11.391 2l6.075 8.667a8.19 8.19 0 0 1-2 11.393l-89.832 62.959a8.152 8.152 0 0 1-4.684 1.478 8.18 8.18 0 0 1-6.707-3.479Zm271.373-67.9a7.7 7.7 0 0 1 7.7-7.7 7.7 7.7 0 0 1 7.7 7.7 7.7 7.7 0 0 1-7.7 7.7 7.7 7.7 0 0 1-7.701-7.704Zm1.924 0a5.773 5.773 0 0 0 5.773 5.773 5.773 5.773 0 0 0 5.773-5.773 5.773 5.773 0 0 0-5.773-5.773 5.773 5.773 0 0 0-5.774 5.769Zm1.926 0a3.849 3.849 0 0 1 3.849-3.848 3.849 3.849 0 0 1 3.848 3.848 3.849 3.849 0 0 1-3.848 3.848 3.849 3.849 0 0 1-3.85-3.852Zm-245.828-17.32a7.7 7.7 0 0 1-7.694-7.7 7.7 7.7 0 0 1 7.7-7.7 7.7 7.7 0 0 1 7.7 7.7 7.7 7.7 0 0 1-7.7 7.7Zm-5.773-7.7a5.773 5.773 0 0 0 5.773 5.773 5.772 5.772 0 0 0 5.773-5.773 5.772 5.772 0 0 0-5.773-5.772 5.773 5.773 0 0 0-5.773 5.771Zm1.927 0a3.849 3.849 0 0 1 3.848-3.849 3.85 3.85 0 0 1 3.849 3.849 3.849 3.849 0 0 1-3.849 3.848 3.849 3.849 0 0 1-3.848-3.848Zm381.191-62.13-4.084-7.072a.48.48 0 0 1 0-.481.481.481 0 0 1 .417-.24h8.168a.483.483 0 0 1 .418.24.482.482 0 0 1 0 .481l-4.082 7.072a.483.483 0 0 1-.418.241.481.481 0 0 1-.42-.241Zm-249.193 0-4.084-7.072a.482.482 0 0 1 0-.481.483.483 0 0 1 .418-.24h8.168a.484.484 0 0 1 .418.24.482.482 0 0 1 0 .481l-4.084 7.072a.481.481 0 0 1-.416.24.482.482 0 0 1-.421-.24Zm-128.03-89.62a6.254 6.254 0 0 1-6.254-6.254 6.254 6.254 0 0 1 6.254-6.254h106.8a6.254 6.254 0 0 1 6.254 6.254 6.254 6.254 0 0 1-6.254 6.254Z" class="b"/>
    <path d="M125.402 156.117a17.621 17.621 0 1 1-17.621-17.621 17.621 17.621 0 0 1 17.621 17.621Z" class="e"/>
    <path d="m95.305 167.385-1.72 3.264-7.589-14.422c-4.569-13.995 11.389-22.031 11.389-22.031 5.206-6.133 15.674 1.04 15.674 1.04 15.1-3.352 7.809 9.37 7.809 9.37s-5.151.115-5.151 4.276-5.607 3.876-5.607 3.876l-4.393 7.691-2.428-2.951c-9.024-3.819-7.984 9.887-7.984 9.887Z" class="c"/>
    <path d="M87.416 447.767v-20.2h14.239v20.2Zm-43.028-34.913 12.868-15.575 10.978 9.07-12.868 15.575Z" class="e"/>
    <path d="M115.52 459.993H.782a.81.81 0 0 1-.782-.809.811.811 0 0 1 .782-.81h84.474a1.207 1.207 0 0 1-.41-.648 11.967 11.967 0 0 1 .38-5.607c1.177-11.648 1.612-11.784 1.87-11.859.415-.121 1.625.456 3.591 1.721l.122.081.027.143c.034.177.9 4.454 5.032 3.8 2.829-.448 3.747-1.075 4.039-1.381a1.74 1.74 0 0 1-.748-.625 2.189 2.189 0 0 1-.157-1.823 28.865 28.865 0 0 1 2.19-4.916l.184-.327 16.183 10.921 10 2.856a2.562 2.562 0 0 1 1.666 1.476 2.58 2.58 0 0 1-.653 2.911 23.893 23.893 0 0 1-4.585 3.272h94.6a.81.81 0 0 1 .781.81.81.81 0 0 1-.781.809h-101.6c-.461.008-.948.012-1.452.012Zm-54.253-17.5c-.83-.572-1.877-1.393-3.032-2.345-4.815-3.984-11.431-10.3-11.479-10.349-2.02-1.381-12.022-8.41-10.713-10.948a11.858 11.858 0 0 1 3.869-4.08c8.33-8.235 8.744-8.058 9-7.95.4.17.965 1.381 1.673 3.61l.041.136-.068.129c-.1.163-2.149 4.019 1.448 6.141 2.468 1.454 3.57 1.556 3.992 1.509a1.736 1.736 0 0 1-.176-.965 2.195 2.195 0 0 1 1.039-1.5 28.931 28.931 0 0 1 4.821-2.394l.347-.136 5.506 18.722 5.882 8.574a2.582 2.582 0 0 1 .34 2.2 2.587 2.587 0 0 1-2.36 1.829c-.332.013-.7.022-1.105.022-2.544.012-6.317-.349-9.024-2.2Zm25.945-9.277-2.606-38.772-20 19.025-13.872-11.458 31.625-41.032-6-89.213H125.2v.006l.007-.006-4.972 88.792-8 7.6-8.745 65.053ZM125.2 271.771h.006Z" class="c"/>
    <path d="M119.635 298.762a12.442 12.442 0 0 0-3.468-4.937l-6.558-20.182-9.894 3.461 7.718 20.094a12.182 12.182 0 0 0 .877 5.943c1.883 4.72 5.95 7.568 9.071 6.358s4.128-6.018 2.244-10.737Z" class="e"/>
    <path d="M93.453 271.772H76.36l-3.787-30.827a88.951 88.951 0 0 1 11.07-54.97s7.186-12.144 19.345-9.712c11.535 2.307 12.6 13.681 12.674 14.843l14.717 38.52 28.363 36.352v.013l-7.616 9.574-27.978-21.178 2.057 17.383h-12.426l4.315 18.063-10.9 5.547Zm23.642 18.063v.007Z" class="b"/>
  </g>
</svg>
