<svg xmlns="http://www.w3.org/2000/svg" width="434.9" height="460">
  <defs>
    <linearGradient id="a" x1=".5" x2=".5" y2="1" gradientUnits="objectBoundingBox">
      <stop offset="0" stop-color="#38d19b"/>
      <stop offset="1" stop-color="#40c9c0"/>
    </linearGradient>
    <clipPath id="c">
      <path d="M0 0h434.9v460H0z"/>
    </clipPath>
    <style>
      .c{fill:#2f2e41}.d{fill:#fff}.g{fill:#3ccdae}.h{fill:#ffb6b6}.i{fill:#3acfa4}
    </style>
  </defs>
  <g id="b" style="clip-path:url(#c)">
    <path d="M499.7 237.784q0 8.105-.681 16.047-.537 6.2-1.464 12.286-.986 6.445-2.417 12.736-.935 4.14-2.054 8.212a182.862 182.862 0 0 1-8.057 23.161q-1.044 2.458-2.156 4.882a183.007 183.007 0 0 1-9.406 17.854 186.341 186.341 0 0 1-35.936 43.427q-2.291 2.037-4.645 4.007A184.836 184.836 0 0 1 314.1 423.383c-102.5 0-185.6-83.094-185.6-185.6s83.094-185.6 185.6-185.6a184.78 184.78 0 0 1 115.4 40.239q2.305 1.827 4.553 3.736a186.919 186.919 0 0 1 20.411 20.2A184.877 184.877 0 0 1 499.7 237.784Z" style="fill:#ebebeb" transform="translate(-128.499 -52.185)"/>
    <path d="M65.395 406.03a8.094 8.094 0 0 1-8.084-8.085V26.88a8.093 8.093 0 0 1 8.084-8.084h240.038a8.093 8.093 0 0 1 8.084 8.084v371.065a8.094 8.094 0 0 1-8.084 8.084Zm-6.914-8.084a6.922 6.922 0 0 0 6.914 6.914h240.038a6.922 6.922 0 0 0 6.914-6.914V45.412H58.481Z" class="c"/>
    <path d="M97.964 33.713a4.1 4.1 0 0 1 4.095-4.095 4.1 4.1 0 0 1 4.094 4.095 4.094 4.094 0 0 1-4.094 4.094 4.1 4.1 0 0 1-4.095-4.094Zm-14.623 0a4.1 4.1 0 0 1 4.094-4.095 4.1 4.1 0 0 1 4.095 4.095 4.1 4.1 0 0 1-4.095 4.094 4.094 4.094 0 0 1-4.094-4.094Zm-14.624 0a4.1 4.1 0 0 1 4.095-4.095 4.1 4.1 0 0 1 4.094 4.095 4.094 4.094 0 0 1-4.094 4.094 4.1 4.1 0 0 1-4.095-4.094Z" class="d"/>
    <path d="M566.265 718.071H308.653a17.2 17.2 0 1 1 0-34.386h257.612a17.2 17.2 0 1 1 0 34.386Z" style="fill:#ccc" transform="translate(-252.128 -329.364)"/>
    <path d="M42.435 0h127.3a42.435 42.435 0 0 1 42.435 42.435v127.3a42.435 42.435 0 0 1-42.435 42.435h-127.3A42.435 42.435 0 0 1 0 169.74V42.435A42.435 42.435 0 0 1 42.435 0Z" style="fill:url(#a)" transform="translate(222.723 74.236)"/>
    <path d="M272.632 106.063h101.5a30 30 0 0 1 30 30v88.526a30 30 0 0 1-30 30h-101.5V106.063Z" class="d"/>
    <path d="M270.783 254.589a5 5 0 0 1-2.9-.969l-11.643-8.3a6.882 6.882 0 0 1-2.727-5.179 7.416 7.416 0 0 1 1.913-5.661l5.423-4.028a7.057 7.057 0 0 0 2.661-5.706 7.057 7.057 0 0 0-2.661-5.707l-5.426-4.031a7.291 7.291 0 0 1-1.931-5.067 7.293 7.293 0 0 1 1.931-5.068l5.426-4.031a7.057 7.057 0 0 0 2.661-5.706 7.057 7.057 0 0 0-2.661-5.706l-5.423-4.028a7.289 7.289 0 0 1-1.934-5.071 7.288 7.288 0 0 1 1.935-5.071l5.422-4.028a7.057 7.057 0 0 0 2.661-5.707 7.057 7.057 0 0 0-2.661-5.707l-5.426-4.031a7.291 7.291 0 0 1-1.931-5.067 7.293 7.293 0 0 1 1.931-5.068l5.426-4.031a7.057 7.057 0 0 0 2.661-5.707 7.057 7.057 0 0 0-2.661-5.706l-5.426-4.031a7.418 7.418 0 0 1-1.909-5.662 6.881 6.881 0 0 1 2.727-5.177l11.643-8.3a5 5 0 0 1 2.9-.969c22.667 0 2.886.69 3.945 1.894a7.3 7.3 0 0 1 1.729 4.846v135.04a7.3 7.3 0 0 1-1.729 4.846c-1.059 1.203 18.72 1.894-3.946 1.894Z" class="d"/>
    <path d="M320.343 209.241a7.243 7.243 0 0 1-4.094-1.414 24.588 24.588 0 0 1-4.094-3.588 52.154 52.154 0 0 1-3.841-4.65q-1.82-2.477-3.336-4.65t-2.578-3.588q-1.061-1.415-1.466-1.415a.58.58 0 0 0-.606.556 5.168 5.168 0 0 0-.1.859v5.509a23.685 23.685 0 0 1-.704 5.861 9.872 9.872 0 0 1-2.578 4.65 7.47 7.47 0 0 1-5.509 1.87 7.091 7.091 0 0 1-6.018-2.729 16.75 16.75 0 0 1-2.931-6.52 40.06 40.06 0 0 1-.96-7.884q-.1-4.094-.1-6.823 0-5.458-.1-10.816t-.104-10.816q0-5.155.152-9.906a42.686 42.686 0 0 1 1.011-8.39 13.2 13.2 0 0 1 2.78-5.812 6.776 6.776 0 0 1 5.357-2.174 11.49 11.49 0 0 1 5.61 1.162 8.372 8.372 0 0 1 3.184 3.032 11.477 11.477 0 0 1 1.466 4.144 29.231 29.231 0 0 1 .354 4.5q0 1.314-.152 3.386t-.354 4.347-.354 4.347-.154 3.385v.859q0 .659.4.657.505 0 1.567-1.264t2.633-3.133q1.567-1.87 3.437-4.043a55.143 55.143 0 0 1 3.843-4.043 26.729 26.729 0 0 1 3.942-3.134 6.923 6.923 0 0 1 3.69-1.264q4.549 0 6.823 2.982a12.061 12.061 0 0 1 2.274 7.536 8.525 8.525 0 0 1-1.769 5.2 23.5 23.5 0 0 1-4.245 4.347 57.826 57.826 0 0 1-5.206 3.69 54.005 54.005 0 0 0-4.65 3.235q-.606.505-1.264 1.011a1.362 1.362 0 0 0-.657 1.011 1.124 1.124 0 0 0 .607.91q.606.4 1.314.91 2.123 1.718 4.9 3.791t5.307 4.3a39.183 39.183 0 0 1 4.4 4.5 9.1 9.1 0 0 1 2.173 4.3 8.355 8.355 0 0 1-.455 4.6 10.769 10.769 0 0 1-2.325 3.526 11.068 11.068 0 0 1-3.239 2.275 7.954 7.954 0 0 1-3.281.808ZM350.379 214.706a25.287 25.287 0 0 1-6.952-.15 17.938 17.938 0 0 1-5.7-1.9 10.587 10.587 0 0 1-3.851-3.5 9.049 9.049 0 0 1-1.4-5.052 5.293 5.293 0 0 1 1.048-3.356 18.588 18.588 0 0 1 2.151-2.351 21.463 21.463 0 0 0 1.75-1.749.915.915 0 0 0-.15-1.45q-.9-.8-2.051-1.651a10.4 10.4 0 0 1-2.151-2.2 11.358 11.358 0 0 1-1.651-3.551 20.623 20.623 0 0 1-.65-5.7 23.426 23.426 0 0 1 2.052-10.253 18.293 18.293 0 0 1 5.752-6.952 24.126 24.126 0 0 1 8.753-3.9 47.792 47.792 0 0 1 11.053-1.2 59.352 59.352 0 0 1 6.1.3 38.975 38.975 0 0 0 5.5.2 12.51 12.51 0 0 0 4.551-1.15 41.336 41.336 0 0 1 4.555-1.853 6.145 6.145 0 0 1 2.1-.4 4.741 4.741 0 0 1 4.1 2.151 7.822 7.822 0 0 1 1.5 4.551 5.9 5.9 0 0 1-.75 3 3.972 3.972 0 0 1-2.451 1.8 4.777 4.777 0 0 1-1.05.15q-.75.05-1.55.15a8.548 8.548 0 0 0-1.45.3q-.65.2-.65.5a.576.576 0 0 0 .2.4 7.523 7.523 0 0 1 2.4 3.951 20.518 20.518 0 0 1 .7 5.452 16.846 16.846 0 0 1-2.2 8.853 19.256 19.256 0 0 1-5.5 5.952 23.01 23.01 0 0 1-7.153 3.35 27.615 27.615 0 0 1-7.252 1.05h-7.4q-.4 0-1.05.05a6.825 6.825 0 0 0-1.35.25 2.727 2.727 0 0 0-1.2.7 1.759 1.759 0 0 0-.5 1.3q0 .8 1.2 1.3a6.107 6.107 0 0 0 3.5 0q2.3-.5 5.9-1a61.86 61.86 0 0 1 8.4-.5 41.254 41.254 0 0 1 8.5.75 14.02 14.02 0 0 1 5.752 2.5 10.092 10.092 0 0 1 3.3 4.651 21.34 21.34 0 0 1 1.05 7.2 17.516 17.516 0 0 1-2.451 9.5 18.475 18.475 0 0 1-6.7 6.3 31.857 31.857 0 0 1-10 3.451 69.391 69.391 0 0 1-12.454 1.05 53.107 53.107 0 0 1-9.753-.85 27.175 27.175 0 0 1-7.9-2.651 14.47 14.47 0 0 1-5.252-4.6 11.649 11.649 0 0 1-1.9-6.7 5.8 5.8 0 0 1 .8-3.1 6.707 6.707 0 0 1 2-2.1 8.945 8.945 0 0 1 2.751-1.2 12.177 12.177 0 0 1 3.051-.4 9.079 9.079 0 0 1 5.2 1.2 8.327 8.327 0 0 1 2.5 2.6q.8 1.4 3.851 2.6a26.026 26.026 0 0 0 9.053 1.2q5.4 0 8.2-1.4t2.8-3.3a3.806 3.806 0 0 0-.7-2.4 4.357 4.357 0 0 0-1.751-1.35 8.38 8.38 0 0 0-2.351-.6 21.833 21.833 0 0 0-2.5-.15 26.214 26.214 0 0 0-6.452.85 35.916 35.916 0 0 1-5.847 1.057Zm14.8-34.611a5.12 5.12 0 0 0-.85-2.951 7.237 7.237 0 0 0-2.1-2.051 8.749 8.749 0 0 0-2.747-1.145 12.754 12.754 0 0 0-2.9-.35 10.006 10.006 0 0 0-3.751.7 10.264 10.264 0 0 0-3 1.8 8.71 8.71 0 0 0-1.951 2.4 5.443 5.443 0 0 0-.7 2.6 3.724 3.724 0 0 0 .8 2.4 6.9 6.9 0 0 0 2.051 1.7 9.3 9.3 0 0 0 2.851 1 17.335 17.335 0 0 0 3.2.3 11.645 11.645 0 0 0 6.5-1.7 5.331 5.331 0 0 0 2.602-4.703Z" class="g"/>
    <path d="m144.204 215.49-.264-.127c-14.195-6.857-32.783-6.851-60.273.022l-.294.073-.088-.29c-2.908-9.535-6.2-20.335-.014-25.649.087-15.592 13.764-28.253 30.563-28.253s30.471 12.654 30.562 28.242c9.206 7.039 4.819 17.44-.044 25.728Z" class="c"/>
    <path d="M231.451 182.102a8.816 8.816 0 0 1-11.874 6.461l-50.164 50.411-4.476-15.653 49.822-46.813a8.864 8.864 0 0 1 16.691 5.594ZM99.187 287.668l.637 12.1s-1.88 10.717-.334 13.03 43.4 2.592 43.4 2.592 2.766-14.911 5.149-27.963ZM219.548 447.641l8.752-1.768-2.505-35.35-12.917 2.609ZM232.084 401.64l8.136-3.658-10.555-33.823-12.008 5.4Z" class="h"/>
    <path d="m215.205 438.54 13.344-6.687 2.515 5.867 16.872 3.41a3.987 3.987 0 0 1 3.177 3.5 3.988 3.988 0 0 1-2.4 4.073l-16.3 6.989-5.3-4.6 1.391 6.274-6.146 2.634Zm-34.723-78.493c-28.773 4.948-56.059 6.826-80.162 2.128a16.138 16.138 0 0 1-7.505-1.719 16.644 16.644 0 0 1-11.193-19.891q.15-.625.346-1.236c3.079-9.391 11.136-16.036 17.483-26.365l46.369.7-.856 2.954 31.77-19.532a16.61 16.61 0 0 1 22.858 5.779q.383.632.712 1.3l38.866 78.416-15.32 8.674-8.27-13.289 14.213 45.456-17.529 1.629Zm47.784 38.777 13.224-6.92 2.617 5.821 16.93 3.114a3.988 3.988 0 0 1 3.238 3.443 3.987 3.987 0 0 1-2.324 4.115l-16.177 7.274-5.378-4.5 1.5 6.248-6.1 2.742Z" class="c"/>
    <circle cx="18.828" cy="18.828" r="18.828" class="h" transform="translate(98.464 168.591)"/>
    <ellipse cx="4.383" cy="5.26" class="i" rx="4.383" ry="5.26" transform="translate(143.015 291.569)"/>
    <path d="m92.637 177.129-.136-.1v-.166a18.182 18.182 0 0 1 .644-4.791 3.982 3.982 0 0 1-2.093-1.082c-1.99-1.989-1.385-5.819 1.35-8.555s6.566-3.34 8.555-1.351a3.75 3.75 0 0 1 .255.282 18.086 18.086 0 0 1 9.437-2.652h7.641a18.093 18.093 0 0 1 11.1 3.8 3.877 3.877 0 0 1 1.32-1.267c2.436-1.407 5.98.169 7.914 3.519s1.527 7.207-.909 8.614a3.847 3.847 0 0 1-1.523.491 18.293 18.293 0 0 1 .249 2.993 4.226 4.226 0 0 1-4.133 4.2l-25.342.436H106.498a24.093 24.093 0 0 1-13.861-4.371Z" class="c"/>
    <path d="M182.32 327.972a8.816 8.816 0 0 1-9.6-9.521l-62.684-33.591 13.711-8.779 59.14 34.3a8.864 8.864 0 0 1-.57 17.595Z" class="h"/>
    <path d="M99.486 312.794c-1.536-2.3-2.035-12.773-2.035-12.773l-3.208-35.691c-5.08-11.269-9.509-23.586-8.041-30.021 1.957-8.578 7.779-10.657 11.286-11.112 1.618-1.748 3.272-3.07 4.573-3.07 2.479-.084 2.161-5.663 4.194-7.083l17.264 2.031a3.524 3.524 0 0 1 3.03 2.747l1.726 7.9 37.968-8.964 31.543-27.386 3.363 17.457s-23.786 35.6-30.155 36.823c-3.174.612-14.514 3.1-26.482 4.657l1.893 2.229s6.146 11.523 3.841 24.583c-.768 4.352-1.393 8.331-1.884 11.7l17.333 10.985-15.759 8.231s-5.88-1.806-13.345-4.363c-12.4 4.479-32.058 11.327-36.318 11.328-.421.005-.687-.063-.787-.208Z" class="i"/>
  </g>
</svg>
